HIERARCHY
ROOT hip
{
  OFFSET 0 0 0
  CHANNELS 6 Xposition Yposition Zposition Zrotation Yrotation Xrotation
  JOINT abdomen
  {
    OFFSET 0 20.6881 -0.73152
    CHANNELS 3 Zrotation Xrotation Yrotation
    JOINT chest
    {
      OFFSET 0 11.7043 -0.48768
      CHANNELS 3 Zrotation Xrotation Yrotation
      JOINT neck
      {
        OFFSET 0 22.1894 -2.19456
        CHANNELS 3 Zrotation Xrotation Yrotation
        JOINT head
        {
          OFFSET -0.24384 7.07133 1.2192
          CHANNELS 3 Zrotation Xrotation Yrotation
          JOINT leftEye
          {
            OFFSET 4.14528 8.04674 8.04672
            CHANNELS 3 Zrotation Xrotation Yrotation
            End Site
            {
              OFFSET 1 0 0
            }
          }
          JOINT rightEye
          {
            OFFSET -3.6576 8.04674 8.04672
            CHANNELS 3 Zrotation Xrotation Yrotation
            End Site
            {
              OFFSET 1 0 0
            }
          }
        }
      }
      JOINT rCollar
      {
        OFFSET -2.68224 19.2634 -4.8768
        CHANNELS 3 Zrotation Xrotation Yrotation
        JOINT rShldr
        {
          OFFSET -8.77824 -1.95073 1.46304
          CHANNELS 3 Zrotation Xrotation Yrotation
          JOINT rForeArm
          {
            OFFSET -28.1742 -1.7115 0.48768
            CHANNELS 3 Zrotation Xrotation Yrotation
            JOINT rHand
            {
              OFFSET -22.5879 0.773209 7.07136
              CHANNELS 3 Zrotation Xrotation Yrotation
              JOINT rThumb1
              {
                OFFSET -1.2192 -0.487915 3.41376
                CHANNELS 3 Zrotation Xrotation Yrotation
                JOINT rThumb2
                {
                  OFFSET -3.37035 -0.52449 3.41376
                  CHANNELS 3 Zrotation Xrotation Yrotation
                  End Site
                  {
                    OFFSET -1.78271 -1.18214 1.43049
                  }
                }
              }
              JOINT rIndex1
              {
                OFFSET -7.75947 0.938293 5.60832
                CHANNELS 3 Zrotation Xrotation Yrotation
                JOINT rIndex2
                {
                  OFFSET -2.54057 -0.884171 1.56538
                  CHANNELS 3 Zrotation Xrotation Yrotation
                  End Site
                  {
                    OFFSET -1.62519 -0.234802 1.16502
                  }
                }
              }
              JOINT rMid1
              {
                OFFSET -8.24714 1.18213 3.41376
                CHANNELS 3 Zrotation Xrotation Yrotation
                JOINT rMid2
                {
                  OFFSET -3.10165 -0.590103 1.0647
                  CHANNELS 3 Zrotation Xrotation Yrotation
                  End Site
                  {
                    OFFSET -2.48547 -0.328903 0.83742
                  }
                }
              }
              JOINT rRing1
              {
                OFFSET -8.82822 0.546677 1.51678
                CHANNELS 3 Zrotation Xrotation Yrotation
                JOINT rRing2
                {
                  OFFSET -2.60934 -0.819778 -0.0198488
                  CHANNELS 3 Zrotation Xrotation Yrotation
                  End Site
                  {
                    OFFSET -2.33842 -0.294052 0.168128
                  }
                }
              }
              JOINT rPinky1
              {
                OFFSET -8.27202 -0.0477905 -0.4584
                CHANNELS 3 Zrotation Xrotation Yrotation
                JOINT rPinky2
                {
                  OFFSET -1.82734 -0.647385 -0.700984
                  CHANNELS 3 Zrotation Xrotation Yrotation
                  End Site
                  {
                    OFFSET -1.69225 -0.51767 -0.607171
                  }
                }
              }
            }
          }
        }
      }
      JOINT lCollar
      {
        OFFSET 2.68224 19.2634 -4.8768
        CHANNELS 3 Zrotation Xrotation Yrotation
        JOINT lShldr
        {
          OFFSET 8.77824 -1.95073 1.46304
          CHANNELS 3 Zrotation Xrotation Yrotation
          JOINT lForeArm
          {
            OFFSET 28.1742 -1.7115 0.48768
            CHANNELS 3 Zrotation Xrotation Yrotation
            JOINT lHand
            {
              OFFSET 22.5879 0.773209 7.07136
              CHANNELS 3 Zrotation Xrotation Yrotation
              JOINT lThumb1
              {
                OFFSET 1.2192 -0.487915 3.41376
                CHANNELS 3 Zrotation Xrotation Yrotation
                JOINT lThumb2
                {
                  OFFSET 3.37035 -0.52449 3.41376
                  CHANNELS 3 Zrotation Xrotation Yrotation
                  End Site
                  {
                    OFFSET 1.78271 -1.18214 1.43049
                  }
                }
              }
              JOINT lIndex1
              {
                OFFSET 7.75947 0.938293 5.60832
                CHANNELS 3 Zrotation Xrotation Yrotation
                JOINT lIndex2
                {
                  OFFSET 2.54057 -0.884171 1.56538
                  CHANNELS 3 Zrotation Xrotation Yrotation
                  End Site
                  {
                    OFFSET 1.62519 -0.234802 1.16502
                  }
                }
              }
              JOINT lMid1
              {
                OFFSET 8.24714 1.18213 3.41376
                CHANNELS 3 Zrotation Xrotation Yrotation
                JOINT lMid2
                {
                  OFFSET 3.10165 -0.590103 1.0647
                  CHANNELS 3 Zrotation Xrotation Yrotation
                  End Site
                  {
                    OFFSET 2.48547 -0.328903 0.83742
                  }
                }
              }
              JOINT lRing1
              {
                OFFSET 8.82822 0.546677 1.51678
                CHANNELS 3 Zrotation Xrotation Yrotation
                JOINT lRing2
                {
                  OFFSET 2.60934 -0.819778 -0.0198488
                  CHANNELS 3 Zrotation Xrotation Yrotation
                  End Site
                  {
                    OFFSET 2.33842 -0.294052 0.168128
                  }
                }
              }
              JOINT lPinky1
              {
                OFFSET 8.27202 -0.0477905 -0.4584
                CHANNELS 3 Zrotation Xrotation Yrotation
                JOINT lPinky2
                {
                  OFFSET 1.82734 -0.647385 -0.700984
                  CHANNELS 3 Zrotation Xrotation Yrotation
                  End Site
                  {
                    OFFSET 1.69225 -0.51767 -0.607171
                  }
                }
              }
            }
          }
        }
      }
    }
  }
  JOINT rButtock
  {
    OFFSET -8.77824 4.35084 1.2192
    CHANNELS 3 Zrotation Xrotation Yrotation
    JOINT rThigh
    {
      OFFSET 0 -1.70687 -2.19456
      CHANNELS 3 Zrotation Xrotation Yrotation
      JOINT rShin
      {
        OFFSET 0 -36.8199 0.73152
        CHANNELS 3 Zrotation Xrotation Yrotation
        JOINT rFoot
        {
          OFFSET 0.73152 -45.1104 -5.12064
          CHANNELS 3 Zrotation Xrotation Yrotation
          End Site
          {
            OFFSET -1.1221 -3.69964 12.103
          }
        }
      }
    }
  }
  JOINT lButtock
  {
    OFFSET 8.77824 4.35084 1.2192
    CHANNELS 3 Zrotation Xrotation Yrotation
    JOINT lThigh
    {
      OFFSET 0 -1.70687 -2.19456
      CHANNELS 3 Zrotation Xrotation Yrotation
      JOINT lShin
      {
        OFFSET 0 -36.8199 0.73152
        CHANNELS 3 Zrotation Xrotation Yrotation
        JOINT lFoot
        {
          OFFSET -0.73152 -45.1104 -5.12064
          CHANNELS 3 Zrotation Xrotation Yrotation
          End Site
          {
            OFFSET 1.1221 -3.69964 12.103
          }
        }
      }
    }
  }
}
MOTION
Frames:	8
Frame Time:	0.00833333
51.5391 83.2877 -40.4956 620.488 -89.0282 -600.06 3.68312 30.768 -4.72124 -3.5197 -6.86127 -1.21093 3.26887 21.4074 1.6874 0.119667 -56.0865 3.42892 -0.0 0.0 0.0 -0.0 0.0 0.0 -3.50257e-14 1.07995e-12 -3.82971e-15 80.4056 26.9429 6.65178 -14.989 -7.78092 27.5662 -0.000491207 0.639713 0.0899094 -4.43936e-10 1.05157e-09 2.72484e-09 -7.60042e-10 1.81786e-09 4.71461e-09 -4.4393e-10 1.05157e-09 2.72483e-09 7.73091 5.47488 0.417314 -4.43932e-10 1.05157e-09 2.72484e-09 2.90554 0.965183 0.102902 -4.43929e-10 1.05157e-09 2.72483e-09 10.2786 0.731801 0.0259123 -4.43943e-10 1.05157e-09 2.72485e-09 2.22167 -0.733487 -0.20892 -3.50731e-14 1.07996e-12 -4.05024e-15 -75.8783 31.9166 -4.37653 14.7639 -7.58769 -27.1043 0.638113 -22.0843 3.26895 -4.33134e-12 1.03361e-09 -2.62095e-09 2.13931e-11 1.78978e-09 -4.52854e-09 -4.3375e-12 1.03361e-09 -2.62094e-09 -7.73091 5.47488 -0.417314 -4.33273e-12 1.03361e-09 -2.62095e-09 -2.90554 0.965183 -0.102902 -4.33359e-12 1.03361e-09 -2.62095e-09 -10.2786 0.731801 -0.0259123 -4.32782e-12 1.03361e-09 -2.62096e-09 -2.22167 -0.733487 0.20892 -2.03217e-16 0.0 -3.88251e-19 2.98955 -42.4286 0.886776 -0.483215 42.2184 0.322245 -0.641538 0.748017 -4.1419 2.03217e-16 0.0 3.88251e-19 3.96345 -56.3886 11.4551 0.148576 32.5656 -0.0297025 2.14166 19.4259 -5.08338
52.1849 83.2682 -40.5298 624.308 -89.0754 -603.695 3.78802 30.6473 -4.68478 -3.51771 -6.88431 -1.19633 3.2667 21.3948 1.66087 0.0724127 -56.1573 3.34201 -0.0 0.0 0.0 -0.0 0.0 0.0 -1.45238e-15 -1.35213e-13 2.01502e-16 80.3441 26.9034 6.61478 -14.9706 -7.76499 27.5283 -0.000598078 0.702661 0.0987575 -6.35831e-10 1.13846e-09 2.52363e-09 -1.09116e-09 1.96827e-09 4.36726e-09 -6.35824e-10 1.13846e-09 2.52362e-09 7.73091 5.47488 0.417314 -6.35828e-10 1.13846e-09 2.52364e-09 2.90554 0.965183 0.102902 -6.35818e-10 1.13846e-09 2.52362e-09 10.2786 0.731801 0.0259123 -6.35837e-10 1.13846e-09 2.52364e-09 2.22167 -0.733487 -0.20892 -1.44408e-15 -1.35211e-13 -1.55293e-18 -75.9262 31.9446 -4.34187 14.7512 -7.57688 -27.0782 0.636867 -22.0644 3.26568 -4.1229e-10 1.03191e-09 -2.52263e-09 -6.84623e-10 1.78394e-09 -4.36523e-09 -4.12295e-10 1.03191e-09 -2.52262e-09 -7.73091 5.47488 -0.417314 -4.1229e-10 1.03191e-09 -2.52263e-09 -2.90554 0.965183 -0.102902 -4.12292e-10 1.0319e-09 -2.52263e-09 -10.2786 0.731801 -0.0259123 -4.12288e-10 1.03191e-09 -2.52264e-09 -2.22167 -0.733487 0.20892 -2.03217e-16 0.0 -3.88251e-19 3.06633 -43.1233 0.843729 -0.481355 42.3349 0.348275 -0.659363 0.915788 -4.39173 2.03217e-16 0.0 3.88251e-19 4.03931 -56.5218 11.3835 0.181252 34.1308 -0.118513 1.99474 17.1633 -5.24596
52.8297 83.2715 -40.5575 626.6 -89.1234 -605.777 3.84782 30.5319 -4.64756 -3.5051 -6.9177 -1.18515 3.26545 21.3804 1.63817 0.0268867 -56.2267 3.26409 -0.0 0.0 0.0 -0.0 0.0 0.0 2.68228e-14 -1.19803e-12 4.87022e-15 80.2883 26.8664 6.57606 -14.9518 -7.74879 27.4897 -0.000693997 0.752207 0.105722 -7.44002e-10 9.63937e-10 1.89901e-09 -1.27944e-09 1.66658e-09 3.28737e-09 -7.43995e-10 9.63935e-10 1.89899e-09 7.73091 5.47488 0.417314 -7.44e-10 9.63937e-10 1.89901e-09 2.90554 0.965183 0.102902 -7.43986e-10 9.63937e-10 1.899e-09 10.2786 0.731801 0.0259123 -7.44008e-10 9.63939e-10 1.89901e-09 2.22167 -0.733487 -0.20892 2.68508e-14 -1.19803e-12 4.67144e-15 -75.9751 31.9682 -4.29495 14.7385 -7.56604 -27.0521 0.636859 -22.0645 3.26569 -6.66035e-10 8.82908e-10 -1.95257e-09 -1.1295e-09 1.52454e-09 -3.38446e-09 -6.6604e-10 8.82906e-10 -1.95256e-09 -7.73091 5.47488 -0.417314 -6.66035e-10 8.82905e-10 -1.95257e-09 -2.90554 0.965183 -0.102902 -6.66038e-10 8.82904e-10 -1.95257e-09 -10.2786 0.731801 -0.0259123 -6.66034e-10 8.82906e-10 -1.95257e-09 -2.22167 -0.733487 0.20892 -2.03217e-16 0.0 -3.88251e-19 3.10717 -43.7888 0.833055 -0.478507 42.401 0.372846 -0.672416 1.11557 -4.63306 2.03217e-16 0.0 3.88251e-19 4.07082 -56.6115 11.3117 0.214456 35.7208 -0.20566 1.78964 15.1365 -5.12327
53.4736 83.2906 -40.5745 627.212 -89.1996 -606.173 3.84617 30.42 -4.60419 -3.47863 -6.96463 -1.17718 3.26541 21.3649 1.62048 -0.0171153 -56.2928 3.1979 -0.0 0.0 0.0 -0.0 0.0 0.0 5.12491e-14 -2.20535e-12 1.16141e-14 80.2373 26.8373 6.53442 -14.9321 -7.73175 27.4491 -0.000755659 0.78234 0.109958 -7.35498e-10 3.18743e-10 4.49223e-10 -1.26946e-09 5.50937e-10 7.80032e-10 -7.35492e-10 3.18743e-10 4.49207e-10 7.73091 5.47488 0.417314 -7.35497e-10 3.18746e-10 4.49223e-10 2.90554 0.965183 0.102902 -7.35483e-10 3.18745e-10 4.49212e-10 10.2786 0.731801 0.0259123 -7.35504e-10 3.18747e-10 4.49225e-10 2.22167 -0.733487 -0.20892 5.12363e-14 -2.20535e-12 1.13987e-14 -76.029 31.9872 -4.22991 14.7266 -7.55599 -27.0279 0.638972 -22.0989 3.27133 -7.03014e-10 4.79593e-10 -4.73039e-10 -1.21023e-09 8.27238e-10 -8.28925e-10 -7.03019e-10 4.79591e-10 -4.73028e-10 -7.73091 5.47488 -0.417314 -7.03014e-10 4.7959e-10 -4.73033e-10 -2.90554 0.965183 -0.102902 -7.03019e-10 4.7959e-10 -4.73035e-10 -10.2786 0.731801 -0.0259123 -7.03011e-10 4.79591e-10 -4.73039e-10 -2.22167 -0.733487 0.20892 -2.03217e-16 0.0 -3.88251e-19 3.11094 -44.4231 0.870843 -0.474255 42.4074 0.395928 -0.679682 1.35564 -4.86368 2.03217e-16 0.0 3.88251e-19 4.05729 -56.6618 11.2564 0.24757 37.3554 -0.290928 1.53113 13.3548 -4.59216
54.1145 83.3242 -40.5778 626.644 -89.3143 -605.4 3.80919 30.2959 -4.54658 -3.44483 -7.02015 -1.16837 3.26634 21.35 1.60651 -0.0648828 -56.3664 3.13749 -0.0 0.0 0.0 -0.0 0.0 0.0 7.53968e-14 -3.26299e-12 2.01021e-14 80.1882 26.8202 6.48949 -14.9112 -7.71372 27.4061 -0.000790512 0.800217 0.112471 -6.54882e-10 -6.61819e-10 -1.6181e-09 -1.13728e-09 -1.14468e-09 -2.79553e-09 -6.54877e-10 -6.61815e-10 -1.61812e-09 7.73091 5.47488 0.417314 -6.54882e-10 -6.61813e-10 -1.6181e-09 2.90554 0.965183 0.102902 -6.54869e-10 -6.61815e-10 -1.61811e-09 10.2786 0.731801 0.0259123 -6.54886e-10 -6.61813e-10 -1.61809e-09 2.22167 -0.733487 -0.20892 7.53055e-14 -3.26298e-12 1.98567e-14 -76.0894 32.0 -4.14751 14.7161 -7.54707 -27.0064 0.643046 -22.1649 3.28216 -6.16332e-10 -1.20466e-10 1.6697e-09 -1.08479e-09 -2.09322e-10 2.87437e-09 -6.16338e-10 -1.20469e-10 1.66971e-09 -7.73091 5.47488 -0.417314 -6.16333e-10 -1.2047e-10 1.6697e-09 -2.90554 0.965183 -0.102902 -6.16341e-10 -1.20471e-10 1.6697e-09 -10.2786 0.731801 -0.0259123 -6.16327e-10 -1.2047e-10 1.6697e-09 -2.22167 -0.733487 0.20892 -2.03217e-16 0.0 -3.88251e-19 3.11998 -45.0401 0.97021 -0.468363 42.3547 0.417611 -0.682075 1.63514 -5.09827 2.03217e-16 0.0 3.88251e-19 4.04758 -56.6993 11.2451 0.283237 39.0628 -0.37777 1.26003 11.7245 -3.74379
54.7531 83.3686 -40.5688 625.197 -89.4679 -603.763 3.75413 30.1756 -4.49294 -3.40608 -7.08079 -1.16226 3.26777 21.3331 1.59457 -0.111783 -56.4435 3.08137 -0.0 0.0 0.0 -0.0 0.0 0.0 9.33276e-14 -4.07368e-12 2.73476e-14 80.145 26.7997 6.44426 -14.8908 -7.6961 27.364 -0.000815007 0.813993 0.114407 -5.42869e-10 -1.6084e-09 -3.55476e-09 -9.50524e-10 -2.78161e-09 -6.14519e-09 -5.42864e-10 -1.6084e-09 -3.55477e-09 7.73091 5.47488 0.417314 -5.4287e-10 -1.6084e-09 -3.55476e-09 2.90554 0.965183 0.102902 -5.42859e-10 -1.6084e-09 -3.55476e-09 10.2786 0.731801 0.0259123 -5.42872e-10 -1.6084e-09 -3.55475e-09 2.22167 -0.733487 -0.20892 9.3158e-14 -4.07368e-12 2.70708e-14 -76.1466 32.008 -4.06038 14.7045 -7.53719 -26.9826 0.647242 -22.2325 3.29325 -4.76907e-10 -7.1966e-10 3.67545e-09 -8.66469e-10 -1.24435e-09 6.34175e-09 -4.76913e-10 -7.19664e-10 3.67545e-09 -7.73091 5.47488 -0.417314 -4.76909e-10 -7.19665e-10 3.67545e-09 -2.90554 0.965183 -0.102902 -4.76918e-10 -7.19665e-10 3.67545e-09 -10.2786 0.731801 -0.0259123 -4.769e-10 -7.19665e-10 3.67545e-09 -2.22167 -0.733487 0.20892 -2.03217e-16 0.0 -3.88251e-19 3.1119 -45.6339 1.0898 -0.461595 42.2635 0.43766 -0.679826 1.93593 -5.33096 2.03217e-16 0.0 3.88251e-19 4.00756 -56.6949 11.2202 0.321232 40.7773 -0.465187 1.03318 10.2841 -2.80185
55.3898 83.4192 -40.5506 623.194 -89.652 -601.587 3.69798 30.0749 -4.46135 -3.36477 -7.14311 -1.16238 3.26926 21.3117 1.58297 -0.153165 -56.5201 3.02806 -0.0 0.0 0.0 -0.0 0.0 0.0 9.91029e-14 -4.34016e-12 3.03644e-14 80.1118 26.7603 6.40177 -14.8724 -7.68027 27.3263 -0.000848704 0.831825 0.116914 -4.40176e-10 -2.15167e-09 -4.61255e-09 -7.76845e-10 -3.72117e-09 -7.97481e-09 -4.40172e-10 -2.15166e-09 -4.61256e-09 7.73091 5.47488 0.417314 -4.40178e-10 -2.15166e-09 -4.61255e-09 2.90554 0.965183 0.102902 -4.40168e-10 -2.15166e-09 -4.61254e-09 10.2786 0.731801 0.0259123 -4.40178e-10 -2.15166e-09 -4.61253e-09 2.22167 -0.733487 -0.20892 9.88931e-14 -4.34015e-12 3.00662e-14 -76.191 32.0126 -3.98117 14.6892 -7.52429 -26.9514 0.649675 -22.2714 3.29966 -3.55654e-10 -1.12038e-09 4.74402e-09 -6.68549e-10 -1.93704e-09 8.18955e-09 -3.55661e-10 -1.12038e-09 4.74403e-09 -7.73091 5.47488 -0.417314 -3.55657e-10 -1.12038e-09 4.74402e-09 -2.90554 0.965183 -0.102902 -3.55667e-10 -1.12038e-09 4.74402e-09 -10.2786 0.731801 -0.0259123 -3.55646e-10 -1.12038e-09 4.74402e-09 -2.22167 -0.733487 0.20892 -2.03217e-16 0.0 -3.88251e-19 3.06167 -46.1986 1.1864 -0.454766 42.1548 0.455869 -0.673581 2.2399 -5.55582 2.03217e-16 0.0 3.88251e-19 3.90329 -56.6195 11.1241 0.360617 42.4333 -0.551684 0.87873 9.07632 -1.98445
56.0257 83.4739 -40.5236 621.091 -89.852 -599.324 3.6329 30.0006 -4.45989 -3.31749 -7.20981 -1.1714 3.26917 21.28 1.57205 -0.18553 -56.5927 2.97933 -0.0 0.0 0.0 -0.0 0.0 0.0 8.5155e-14 -3.70933e-12 2.64065e-14 80.0903 26.692 6.36495 -14.855 -7.66543 27.2907 -0.000904256 0.859235 0.120767 -3.33481e-10 -2.10804e-09 -4.39162e-09 -5.91852e-10 -3.64595e-09 -7.59288e-09 -3.33475e-10 -2.10803e-09 -4.39164e-09 7.73091 5.47488 0.417314 -3.33482e-10 -2.10803e-09 -4.39162e-09 2.90554 0.965183 0.102902 -3.33473e-10 -2.10803e-09 -4.39162e-09 10.2786 0.731801 0.0259123 -3.33483e-10 -2.10803e-09 -4.39161e-09 2.22167 -0.733487 -0.20892 8.49667e-14 -3.70932e-12 2.61037e-14 -76.2212 32.0126 -3.91066 14.6694 -7.50754 -26.9109 0.649697 -22.2717 3.29971 -2.45375e-10 -1.25196e-09 4.4391e-09 -4.73347e-10 -2.16568e-09 7.66394e-09 -2.45382e-10 -1.25196e-09 4.43911e-09 -7.73091 5.47488 -0.417314 -2.45377e-10 -1.25196e-09 4.4391e-09 -2.90554 0.965183 -0.102902 -2.45386e-10 -1.25196e-09 4.4391e-09 -10.2786 0.731801 -0.0259123 -2.45367e-10 -1.25196e-09 4.43909e-09 -2.22167 -0.733487 0.20892 -2.03217e-16 0.0 -3.88251e-19 2.94945 -46.7415 1.25125 -0.448173 42.0429 0.472666 -0.664041 2.54119 -5.77318 2.03217e-16 0.0 3.88251e-19 3.70772 -56.4706 10.9375 0.400274 44.0358 -0.63685 0.779011 8.13964 -1.26817
